<svg width="36" height="36" viewBox="0 0 36 36" fill="none" xmlns="http://www.w3.org/2000/svg">
<path d="M17.9974 17.1667C19.1511 17.1667 20.2789 16.8246 21.2382 16.1836C22.1975 15.5426 22.9452 14.6316 23.3867 13.5657C23.8282 12.4998 23.9437 11.3269 23.7186 10.1953C23.4936 9.06375 22.938 8.02435 22.1222 7.20855C21.3064 6.39274 20.267 5.83717 19.1354 5.61209C18.0039 5.38701 16.831 5.50253 15.7651 5.94404C14.6992 6.38555 13.7881 7.13322 13.1472 8.09251C12.5062 9.0518 12.1641 10.1796 12.1641 11.3333C12.1641 12.8804 12.7786 14.3642 13.8726 15.4581C14.9666 16.5521 16.4503 17.1667 17.9974 17.1667ZM17.9974 7.16667C18.8215 7.16667 19.6271 7.41104 20.3123 7.86888C20.9975 8.32672 21.5315 8.97746 21.8469 9.73882C22.1623 10.5002 22.2448 11.338 22.084 12.1462C21.9232 12.9545 21.5264 13.6969 20.9437 14.2796C20.361 14.8623 19.6185 15.2592 18.8103 15.4199C18.002 15.5807 17.1642 15.4982 16.4029 15.1828C15.6415 14.8675 14.9908 14.3334 14.5329 13.6482C14.0751 12.963 13.8307 12.1574 13.8307 11.3333C13.8307 10.2283 14.2697 9.16846 15.0511 8.38706C15.8325 7.60566 16.8923 7.16667 17.9974 7.16667V7.16667Z" fill="black"/>
<path d="M28.3969 23.3084C27.0605 21.8959 25.45 20.7708 23.664 20.0019C21.878 19.2329 19.9539 18.8364 18.0094 18.8364C16.0649 18.8364 14.1408 19.2329 12.3548 20.0019C10.5687 20.7708 8.95829 21.8959 7.62188 23.3084C7.33214 23.6178 7.17122 24.0261 7.17188 24.45V28.8334C7.17188 29.2754 7.34747 29.6993 7.66003 30.0119C7.97259 30.3244 8.39652 30.5 8.83854 30.5H27.1719C27.6139 30.5 28.0378 30.3244 28.3504 30.0119C28.6629 29.6993 28.8385 29.2754 28.8385 28.8334V24.45C28.8415 24.0272 28.6836 23.6191 28.3969 23.3084V23.3084ZM27.1719 28.8334H8.83854V24.4417C10.0196 23.1981 11.4413 22.2078 13.0172 21.5311C14.5931 20.8544 16.2902 20.5054 18.0052 20.5054C19.7202 20.5054 21.4174 20.8544 22.9932 21.5311C24.5691 22.2078 25.9909 23.1981 27.1719 24.4417V28.8334Z" fill="black"/>
</svg>
