<svg width="24" height="24" viewBox="0 0 24 24" fill="none" xmlns="http://www.w3.org/2000/svg">
<path d="M16.5 8.22848V6.38185C16.5 5.80641 16.3836 5.23662 16.1575 4.70499C15.9313 4.17336 15.5998 3.69031 15.182 3.28341C14.7641 2.87652 14.268 2.55376 13.7221 2.33355C13.1761 2.11334 12.5909 2 12 2C11.4091 2 10.8239 2.11334 10.2779 2.33355C9.73196 2.55376 9.23588 2.87652 8.81802 3.28341C8.40016 3.69031 8.06869 4.17336 7.84254 4.70499C7.6164 5.23662 7.5 5.80641 7.5 6.38185V10.7637C7.5 10.9297 7.56773 11.0889 7.68829 11.2063C7.80885 11.3237 7.97236 11.3897 8.14286 11.3897C8.31335 11.3897 8.47687 11.3237 8.59743 11.2063C8.71798 11.0889 8.78571 10.9297 8.78571 10.7637V9.48044H13.9286V8.22848H8.78571V6.38185C8.78571 5.55175 9.12436 4.75565 9.72716 4.16868C10.33 3.58171 11.1475 3.25196 12 3.25196C12.8525 3.25196 13.67 3.58171 14.2728 4.16868C14.8756 4.75565 15.2143 5.55175 15.2143 6.38185V10.7324C15.2143 10.8984 15.282 11.0576 15.4026 11.175C15.5231 11.2924 15.6866 11.3584 15.8571 11.3584C16.0276 11.3584 16.1912 11.2924 16.3117 11.175C16.4323 11.0576 16.5 10.8984 16.5 10.7324V9.48044H19.7143V20.748H4.28571V9.48044H6.21429V8.22848H3V20.8044C3 21.1215 3.12936 21.4256 3.35963 21.6498C3.5899 21.874 3.90221 22 4.22786 22H19.7721C20.0978 22 20.4101 21.874 20.6404 21.6498C20.8706 21.4256 21 21.1215 21 20.8044V8.22848H16.5Z" fill="black"/>
</svg>
