<svg width="36" height="36" viewBox="0 0 36 36" fill="none" xmlns="http://www.w3.org/2000/svg">
<path d="M24.75 12.3427V9.57277C24.75 8.70962 24.5754 7.85492 24.2362 7.05748C23.897 6.26003 23.3998 5.53546 22.773 4.92512C22.1462 4.31478 21.4021 3.83063 20.5831 3.50032C19.7642 3.17001 18.8864 3 18 3C17.1136 3 16.2358 3.17001 15.4169 3.50032C14.5979 3.83063 13.8538 4.31478 13.227 4.92512C12.6002 5.53546 12.103 6.26003 11.7638 7.05748C11.4246 7.85492 11.25 8.70962 11.25 9.57277V16.1455C11.25 16.3946 11.3516 16.6334 11.5324 16.8095C11.7133 16.9856 11.9585 17.0845 12.2143 17.0845C12.47 17.0845 12.7153 16.9856 12.8961 16.8095C13.077 16.6334 13.1786 16.3946 13.1786 16.1455V14.2207H20.8929V12.3427H13.1786V9.57277C13.1786 8.32762 13.6865 7.13347 14.5907 6.25302C15.4949 5.37257 16.7213 4.87793 18 4.87793C19.2787 4.87793 20.5051 5.37257 21.4093 6.25302C22.3135 7.13347 22.8214 8.32762 22.8214 9.57277V16.0986C22.8214 16.3476 22.923 16.5865 23.1039 16.7625C23.2847 16.9386 23.53 17.0376 23.7857 17.0376C24.0415 17.0376 24.2867 16.9386 24.4676 16.7625C24.6484 16.5865 24.75 16.3476 24.75 16.0986V14.2207H29.5714V31.1221H6.42857V14.2207H9.32143V12.3427H4.5V31.2066C4.5 31.6822 4.69404 32.1384 5.03945 32.4747C5.38485 32.8111 5.85331 33 6.34179 33H29.6582C30.1467 33 30.6152 32.8111 30.9606 32.4747C31.306 32.1384 31.5 31.6822 31.5 31.2066V12.3427H24.75Z" fill="black"/>
</svg>
