<svg width="64" height="64" viewBox="0 0 64 64" fill="none" xmlns="http://www.w3.org/2000/svg">
<rect width="64" height="64" fill="white"/>
<path d="M32 22C26.4864 22 22 26.4855 22 32C22 37.5145 26.4864 42 32 42C37.5136 42 42 37.5145 42 32C42 26.4855 37.5136 22 32 22ZM32 41.3339C26.8538 41.3339 22.6673 37.1466 22.6673 32C22.6673 26.8534 26.8538 22.6661 32 22.6661C37.1462 22.6661 41.3327 26.8534 41.3327 32C41.3327 37.1466 37.1462 41.3339 32 41.3339Z" fill="black"/>
<path d="M34.3033 26.3869H32.6395C30.5204 26.3657 30.2497 27.6773 30.2497 29.0968V30.129H29.3143C29.272 30.1233 29.229 30.1275 29.1886 30.1412C29.1482 30.1548 29.1114 30.1777 29.0813 30.2078C29.0511 30.238 29.0283 30.2747 29.0146 30.3151C29.001 30.3555 28.9968 30.3985 29.0024 30.4408V32.3118C28.9968 32.3541 29.001 32.3971 29.0146 32.4375C29.0283 32.4779 29.0511 32.5147 29.0813 32.5448C29.1114 32.575 29.1482 32.5978 29.1886 32.6115C29.229 32.6251 29.272 32.6293 29.3143 32.6237H30.2497V37.3012C30.2445 37.3436 30.2491 37.3866 30.263 37.4269C30.277 37.4672 30.3 37.5038 30.3302 37.5339C30.3605 37.564 30.3972 37.5868 30.4377 37.6005C30.4781 37.6142 30.5211 37.6185 30.5634 37.6131H32.4686C32.6526 37.6343 32.8016 37.4852 32.743 37.3012L32.7443 32.6237H34.3033C34.3456 32.6293 34.3886 32.6251 34.429 32.6115C34.4695 32.5978 34.5062 32.575 34.5363 32.5448C34.5665 32.5147 34.5893 32.4779 34.603 32.4375C34.6166 32.3971 34.6208 32.3541 34.6152 32.3118V30.4408C34.6208 30.3985 34.6166 30.3555 34.603 30.3151C34.5893 30.2747 34.5665 30.238 34.5363 30.2078C34.5062 30.1777 34.4695 30.1548 34.429 30.1412C34.3886 30.1275 34.3456 30.1233 34.3033 30.129H32.7424L32.7443 29.1935C32.8048 28.7949 32.8048 28.8598 33.1746 28.8816H34.2903C34.3769 28.8623 34.4692 28.8729 34.5341 28.8099C34.599 28.7469 34.6364 28.6608 34.6145 28.5698V26.6988C34.6203 26.6565 34.6162 26.6135 34.6026 26.5731C34.589 26.5327 34.5663 26.4959 34.5362 26.4658C34.5061 26.4356 34.4694 26.4128 34.429 26.3991C34.3886 26.3854 34.3456 26.3812 34.3033 26.3869ZM33.9697 28.223L33.1877 28.1931C32.2192 28.1931 32.1381 28.7188 32.1381 29.2571L32.1356 30.4396C32.1355 30.4833 32.1441 30.5267 32.1608 30.5672C32.1775 30.6077 32.202 30.6445 32.2329 30.6755C32.2638 30.7065 32.3006 30.731 32.341 30.7478C32.3815 30.7646 32.4248 30.7732 32.4686 30.7732H33.9915V31.9782H32.4699C32.3815 31.9782 32.2967 32.0132 32.2342 32.0757C32.1716 32.1381 32.1364 32.2228 32.1362 32.3112L32.1356 36.9894H30.8734V32.3118C30.8734 32.1278 30.748 31.9788 30.5634 31.9788H29.6261V30.7738H30.5634C30.6072 30.7739 30.6505 30.7654 30.691 30.7487C30.7314 30.732 30.7682 30.7075 30.7991 30.6766C30.8615 30.6136 30.8727 30.5287 30.8727 30.4402V29.0962C30.8727 27.6979 31.1552 27.0318 32.6389 27.0318H33.9691V28.223H33.9697Z" fill="black"/>
</svg>
