<svg width="64" height="64" viewBox="0 0 64 64" fill="none" xmlns="http://www.w3.org/2000/svg">
<rect width="64" height="64" fill="white"/>
<path fill-rule="evenodd" clip-rule="evenodd" d="M27.8773 22.06C28.9436 22.0109 29.2836 22 32 22C34.7164 22 35.0564 22.0118 36.1218 22.06C37.1873 22.1082 37.9145 22.2782 38.5509 22.5245C39.2173 22.7764 39.8218 23.17 40.3218 23.6791C40.8309 24.1782 41.2236 24.7818 41.4745 25.4491C41.7218 26.0855 41.8909 26.8127 41.94 27.8764C41.9891 28.9445 42 29.2845 42 32C42 34.7164 41.9882 35.0564 41.94 36.1227C41.8918 37.1864 41.7218 37.9136 41.4745 38.55C41.2236 39.2174 40.8303 39.822 40.3218 40.3218C39.8218 40.8309 39.2173 41.2236 38.5509 41.4745C37.9145 41.7218 37.1873 41.8909 36.1236 41.94C35.0564 41.9891 34.7164 42 32 42C29.2836 42 28.9436 41.9882 27.8773 41.94C26.8136 41.8918 26.0864 41.7218 25.45 41.4745C24.7827 41.2236 24.178 40.8302 23.6782 40.3218C23.1694 39.8224 22.7757 39.2181 22.5245 38.5509C22.2782 37.9145 22.1091 37.1873 22.06 36.1236C22.0109 35.0555 22 34.7155 22 32C22 29.2836 22.0118 28.9436 22.06 27.8782C22.1082 26.8127 22.2782 26.0855 22.5245 25.4491C22.7761 24.7819 23.1701 24.1776 23.6791 23.6782C24.1782 23.1695 24.7822 22.7759 25.4491 22.5245C26.0855 22.2782 26.8136 22.1091 27.8773 22.06ZM36.0409 23.86C34.9864 23.8118 34.67 23.8018 32 23.8018C29.33 23.8018 29.0136 23.8118 27.9591 23.86C26.9836 23.9045 26.4545 24.0673 26.1018 24.2045C25.6355 24.3864 25.3018 24.6018 24.9518 24.9518C24.62 25.2746 24.3647 25.6675 24.2045 26.1018C24.0673 26.4545 23.9045 26.9836 23.86 27.9591C23.8118 29.0136 23.8018 29.33 23.8018 32C23.8018 34.67 23.8118 34.9864 23.86 36.0409C23.9045 37.0164 24.0673 37.5455 24.2045 37.8982C24.3645 38.3318 24.62 38.7255 24.9518 39.0482C25.2745 39.38 25.6682 39.6355 26.1018 39.7955C26.4545 39.9327 26.9836 40.0955 27.9591 40.14C29.0136 40.1882 29.3291 40.1982 32 40.1982C34.6709 40.1982 34.9864 40.1882 36.0409 40.14C37.0164 40.0955 37.5455 39.9327 37.8982 39.7955C38.3645 39.6136 38.6982 39.3982 39.0482 39.0482C39.38 38.7255 39.6355 38.3318 39.7955 37.8982C39.9327 37.5455 40.0955 37.0164 40.14 36.0409C40.1882 34.9864 40.1982 34.67 40.1982 32C40.1982 29.33 40.1882 29.0136 40.14 27.9591C40.0955 26.9836 39.9327 26.4545 39.7955 26.1018C39.6136 25.6355 39.3982 25.3018 39.0482 24.9518C38.7254 24.6201 38.3325 24.3647 37.8982 24.2045C37.5455 24.0673 37.0164 23.9045 36.0409 23.86ZM30.7227 35.0827C31.4361 35.3797 32.2303 35.4197 32.9699 35.1961C33.7095 34.9725 34.3485 34.499 34.7778 33.8566C35.2071 33.2142 35.4001 32.4426 35.3237 31.6737C35.2473 30.9049 34.9064 30.1863 34.3591 29.6409C34.0102 29.2923 33.5884 29.0253 33.1239 28.8592C32.6595 28.6932 32.164 28.6321 31.6732 28.6806C31.1823 28.729 30.7083 28.8856 30.2853 29.1392C29.8622 29.3928 29.5007 29.737 29.2266 30.1471C28.9526 30.5572 28.7729 31.023 28.7005 31.5109C28.628 31.9988 28.6647 32.4966 28.8078 32.9687C28.9508 33.4407 29.1968 33.8751 29.5279 34.2407C29.8591 34.6062 30.2671 34.8938 30.7227 35.0827ZM28.3655 28.3655C28.8428 27.8882 29.4094 27.5095 30.033 27.2512C30.6566 26.9929 31.325 26.86 32 26.86C32.675 26.86 33.3434 26.9929 33.967 27.2512C34.5906 27.5095 35.1573 27.8882 35.6345 28.3655C36.1118 28.8428 36.4905 29.4094 36.7488 30.033C37.0071 30.6566 37.14 31.325 37.14 32C37.14 32.675 37.0071 33.3434 36.7488 33.967C36.4905 34.5906 36.1118 35.1573 35.6345 35.6345C34.6706 36.5985 33.3632 37.14 32 37.14C30.6368 37.14 29.3294 36.5985 28.3655 35.6345C27.4015 34.6706 26.86 33.3632 26.86 32C26.86 30.6368 27.4015 29.3294 28.3655 28.3655ZM38.28 27.6255C38.3983 27.5139 38.493 27.3797 38.5585 27.2309C38.624 27.0821 38.6589 26.9216 38.6613 26.759C38.6637 26.5964 38.6334 26.435 38.5723 26.2844C38.5111 26.1337 38.4204 25.9968 38.3054 25.8819C38.1904 25.7669 38.0536 25.6761 37.9029 25.615C37.7522 25.5539 37.5908 25.5236 37.4282 25.526C37.2657 25.5284 37.1052 25.5633 36.9564 25.6288C36.8076 25.6943 36.6734 25.789 36.5618 25.9073C36.3448 26.1373 36.226 26.4428 36.2306 26.759C36.2352 27.0752 36.3629 27.3772 36.5865 27.6008C36.8101 27.8244 37.1121 27.952 37.4282 27.9566C37.7444 27.9612 38.05 27.8424 38.28 27.6255Z" fill="black"/>
</svg>
