<svg width="24" height="24" viewBox="0 0 24 24" fill="none" xmlns="http://www.w3.org/2000/svg">
<path d="M19.7752 18.1111H4.21962C4.07228 18.1111 3.93097 18.0526 3.82678 17.9484C3.72259 17.8442 3.66406 17.7029 3.66406 17.5556C3.66406 17.4082 3.72259 17.2669 3.82678 17.1627C3.93097 17.0585 4.07228 17 4.21962 17H19.7752C19.9225 17 20.0638 17.0585 20.168 17.1627C20.2722 17.2669 20.3307 17.4082 20.3307 17.5556C20.3307 17.7029 20.2722 17.8442 20.168 17.9484C20.0638 18.0526 19.9225 18.1111 19.7752 18.1111Z" fill="black"/>
<path d="M19.7752 12.5556H4.21962C4.07228 12.5556 3.93097 12.497 3.82678 12.3929C3.72259 12.2887 3.66406 12.1474 3.66406 12C3.66406 11.8527 3.72259 11.7114 3.82678 11.6072C3.93097 11.503 4.07228 11.4445 4.21962 11.4445H19.7752C19.9225 11.4445 20.0638 11.503 20.168 11.6072C20.2722 11.7114 20.3307 11.8527 20.3307 12C20.3307 12.1474 20.2722 12.2887 20.168 12.3929C20.0638 12.497 19.9225 12.5556 19.7752 12.5556Z" fill="black"/>
<path d="M19.7752 7H4.21962C4.07228 7 3.93097 6.94147 3.82678 6.83728C3.72259 6.73309 3.66406 6.59178 3.66406 6.44444C3.66406 6.2971 3.72259 6.15579 3.82678 6.0516C3.93097 5.94742 4.07228 5.88889 4.21962 5.88889H19.7752C19.9225 5.88889 20.0638 5.94742 20.168 6.0516C20.2722 6.15579 20.3307 6.2971 20.3307 6.44444C20.3307 6.59178 20.2722 6.73309 20.168 6.83728C20.0638 6.94147 19.9225 7 19.7752 7Z" fill="black"/>
</svg>
