<svg width="24" height="24" viewBox="0 0 24 24" fill="none" xmlns="http://www.w3.org/2000/svg">
<path d="M12 2C6.50833 2 2 6.17218 2 11.3401C2 14.0934 3.30833 16.5397 5.33333 18.2437V22L9.03167 20.1978C9.97167 20.4739 10.955 20.6802 12 20.6802C17.4917 20.6802 22 16.508 22 11.3401C22 6.17218 17.4917 2 12 2ZM12 3.62437C16.6325 3.62437 20.3333 7.08914 20.3333 11.3401C20.3333 15.5911 16.6325 19.0558 12 19.0558C11.0042 19.0558 10.0533 18.8715 9.16167 18.5734L8.82333 18.4719L7 19.3604V17.533L6.6875 17.2788C4.83833 15.8583 3.66667 13.7295 3.66667 11.3401C3.66667 7.08914 7.3675 3.62437 12 3.62437ZM11.0625 8.77685L6.03667 13.9545L10.5417 11.518L12.9375 14.0309L17.9117 8.77604L13.51 11.1882L11.0625 8.77685Z" fill="black"/>
</svg>
