<svg width="24" height="24" viewBox="0 0 24 24" fill="none" xmlns="http://www.w3.org/2000/svg">
<path d="M19.9676 7.56117V8.15555C19.9676 14.1409 15.8378 21 8.28108 21C6.05024 21.0053 3.86677 20.2924 2 18.9494C2.3242 18.9978 2.65123 19.0196 2.97838 19.0148C4.82757 19.0204 6.62477 18.3421 8.08108 17.089C7.22199 17.0751 6.38874 16.7638 5.69976 16.1993C5.01078 15.6348 4.50113 14.8459 4.24324 13.9448C4.49914 14.0044 4.76004 14.0343 5.02162 14.0339C5.3869 14.034 5.75052 13.98 6.1027 13.8734C5.17221 13.6695 4.33509 13.1163 3.73459 12.3085C3.13409 11.5008 2.80754 10.4886 2.81081 9.44534V9.3859C3.38011 9.73559 4.01836 9.92736 4.67027 9.94461C3.80248 9.3167 3.1855 8.34811 2.94539 7.23677C2.70527 6.12542 2.86015 4.9552 3.37838 3.96521C4.41095 5.36169 5.69924 6.50358 7.15948 7.31666C8.61973 8.12974 10.2193 8.5958 11.8541 8.68454C11.7731 8.34719 11.7349 7.99917 11.7405 7.65033C11.7101 6.7284 11.9388 5.81856 12.3955 5.04469C12.8522 4.27082 13.5147 3.67053 14.2929 3.32556C15.071 2.98058 15.9269 2.90769 16.744 3.11681C17.5612 3.32593 18.2998 3.80689 18.8595 4.4942C19.7793 4.29008 20.6617 3.91843 21.4703 3.39461C21.1637 4.45935 20.5114 5.36277 19.6378 5.93259C20.4538 5.80895 21.2494 5.55673 22 5.18368C21.456 6.10237 20.7678 6.90739 19.9676 7.56117V7.56117Z" stroke="black" stroke-linecap="round" stroke-linejoin="round"/>
</svg>
