<svg width="64" height="64" viewBox="0 0 64 64" fill="none" xmlns="http://www.w3.org/2000/svg">
<rect width="64" height="64" fill="white"/>
<path d="M39.9676 27.5612V28.1555C39.9676 34.1409 35.8378 41 28.2811 41C26.0502 41.0053 23.8668 40.2924 22 38.9494C22.3242 38.9978 22.6512 39.0196 22.9784 39.0148C24.8276 39.0204 26.6248 38.3421 28.0811 37.089C27.222 37.0751 26.3887 36.7638 25.6998 36.1993C25.0108 35.6348 24.5011 34.8459 24.2432 33.9448C24.4991 34.0044 24.76 34.0343 25.0216 34.0339C25.3869 34.034 25.7505 33.98 26.1027 33.8734C25.1722 33.6695 24.3351 33.1163 23.7346 32.3085C23.1341 31.5008 22.8075 30.4886 22.8108 29.4453V29.3859C23.3801 29.7356 24.0184 29.9274 24.6703 29.9446C23.8025 29.3167 23.1855 28.3481 22.9454 27.2368C22.7053 26.1254 22.8602 24.9552 23.3784 23.9652C24.411 25.3617 25.6992 26.5036 27.1595 27.3167C28.6197 28.1297 30.2193 28.5958 31.8541 28.6845C31.7731 28.3472 31.7349 27.9992 31.7405 27.6503C31.7101 26.7284 31.9388 25.8186 32.3955 25.0447C32.8522 24.2708 33.5147 23.6705 34.2929 23.3256C35.071 22.9806 35.9269 22.9077 36.744 23.1168C37.5612 23.3259 38.2998 23.8069 38.8595 24.4942C39.7793 24.2901 40.6617 23.9184 41.4703 23.3946C41.1637 24.4594 40.5114 25.3628 39.6378 25.9326C40.4538 25.809 41.2494 25.5567 42 25.1837C41.456 26.1024 40.7678 26.9074 39.9676 27.5612V27.5612Z" stroke="black" stroke-linecap="round" stroke-linejoin="round"/>
</svg>
