<svg width="24" height="24" viewBox="0 0 24 24" fill="none" xmlns="http://www.w3.org/2000/svg">
<path d="M19.0781 4.90755C18.157 3.98215 17.0602 3.24849 15.8515 2.74932C14.6427 2.25014 13.3463 1.99544 12.0377 2.00006C6.55424 2.00006 2.08538 6.44755 2.08036 11.9075C2.08036 13.6563 2.53993 15.3575 3.40758 16.8638L2 22L7.27875 20.6225C8.73908 21.4136 10.3751 21.8283 12.0377 21.8288H12.0427C17.5274 21.8288 21.995 17.3813 22 11.9163C22.0012 10.6138 21.7436 9.32402 21.2419 8.12114C20.7402 6.91826 20.0044 5.82609 19.0768 4.90755H19.0781ZM12.0377 20.1513C10.5547 20.1518 9.09907 19.7545 7.8237 19.0013L7.52235 18.8213L4.39076 19.6388L5.22702 16.5975L5.03114 16.2838C4.20217 14.9717 3.76375 13.4526 3.7667 11.9025C3.7667 7.37005 7.47966 3.67256 12.0427 3.67256C13.1298 3.67062 14.2065 3.8829 15.2107 4.29717C16.215 4.71144 17.1269 5.3195 17.894 6.0863C18.6638 6.85011 19.274 7.75808 19.6895 8.75783C20.105 9.75758 20.3176 10.8293 20.3149 11.9113C20.3099 16.46 16.5969 20.1513 12.0377 20.1513ZM16.5768 13.9838C16.3295 13.86 15.1077 13.2613 14.8779 13.1763C14.6494 13.095 14.4824 13.0525 14.3192 13.3C14.1522 13.5463 13.675 14.1075 13.5319 14.2688C13.3887 14.435 13.2406 14.4538 12.992 14.3313C12.7446 14.2063 11.9422 13.9463 10.993 13.1C10.2521 12.4438 9.75615 11.6313 9.60798 11.385C9.46484 11.1375 9.59417 11.005 9.71848 10.8813C9.82772 10.7713 9.96584 10.5913 10.0902 10.4488C10.2157 10.3063 10.2572 10.2013 10.3388 10.0363C10.4204 9.86879 10.3815 9.72629 10.3199 9.60254C10.2572 9.47879 9.76117 8.25754 9.55148 7.76504C9.35058 7.2788 9.1459 7.34629 8.99271 7.34004C8.84957 7.3313 8.68257 7.3313 8.51557 7.3313C8.38946 7.33442 8.26535 7.36345 8.15105 7.41658C8.03674 7.46972 7.9347 7.54579 7.85133 7.64004C7.6228 7.88754 6.98368 8.48629 6.98368 9.70754C6.98368 10.9288 7.87519 12.1025 8.00075 12.2688C8.12381 12.435 9.75113 14.9338 12.2486 16.0088C12.8388 16.265 13.3034 16.4163 13.6662 16.5313C14.2627 16.7213 14.8014 16.6925 15.2308 16.6313C15.7079 16.5588 16.7012 16.0313 16.9108 15.4525C17.1168 14.8725 17.1168 14.3775 17.054 14.2738C16.9925 14.1688 16.8255 14.1075 16.5768 13.9838Z" fill="black"/>
</svg>
