<svg width="24" height="24" viewBox="0 0 24 24" fill="none" xmlns="http://www.w3.org/2000/svg">
<path d="M12 2C6.48644 2 2 6.48547 2 12C2 17.5145 6.48644 22 12 22C17.5136 22 22 17.5145 22 12C22 6.48547 17.5136 2 12 2ZM12 21.3339C6.85376 21.3339 2.66729 17.1466 2.66729 12C2.66729 6.85344 6.85376 2.66608 12 2.66608C17.1462 2.66608 21.3327 6.85344 21.3327 12C21.3327 17.1466 17.1462 21.3339 12 21.3339Z" fill="black"/>
<path d="M14.3033 6.38692H12.6395C10.5204 6.36572 10.2497 7.6773 10.2497 9.09679V10.129H9.31426C9.27198 10.1233 9.22897 10.1275 9.18856 10.1412C9.14816 10.1548 9.11145 10.1777 9.08128 10.2078C9.05112 10.238 9.02832 10.2747 9.01464 10.3151C9.00097 10.3555 8.9968 10.3985 9.00244 10.4408V12.3118C8.9968 12.3541 9.00097 12.3971 9.01464 12.4375C9.02832 12.4779 9.05112 12.5147 9.08128 12.5448C9.11145 12.575 9.14816 12.5978 9.18856 12.6115C9.22897 12.6251 9.27198 12.6293 9.31426 12.6237H10.2497V17.3012C10.2445 17.3436 10.2491 17.3866 10.263 17.4269C10.277 17.4672 10.3 17.5038 10.3302 17.5339C10.3605 17.564 10.3972 17.5868 10.4377 17.6005C10.4781 17.6142 10.5211 17.6185 10.5634 17.6131H12.4686C12.6526 17.6343 12.8016 17.4852 12.743 17.3012L12.7443 12.6237H14.3033C14.3456 12.6293 14.3886 12.6251 14.429 12.6115C14.4695 12.5978 14.5062 12.575 14.5363 12.5448C14.5665 12.5147 14.5893 12.4779 14.603 12.4375C14.6166 12.3971 14.6208 12.3541 14.6152 12.3118V10.4408C14.6208 10.3985 14.6166 10.3555 14.603 10.3151C14.5893 10.2747 14.5665 10.238 14.5363 10.2078C14.5062 10.1777 14.4695 10.1548 14.429 10.1412C14.3886 10.1275 14.3456 10.1233 14.3033 10.129H12.7424L12.7443 9.19346C12.8048 8.79493 12.8048 8.85979 13.1746 8.88162H14.2903C14.3769 8.86229 14.4692 8.87289 14.5341 8.8099C14.599 8.74691 14.6364 8.66084 14.6145 8.56978V6.69876C14.6203 6.65651 14.6162 6.6135 14.6026 6.57309C14.589 6.53267 14.5663 6.49594 14.5362 6.46576C14.5061 6.43558 14.4694 6.41276 14.429 6.39909C14.3886 6.38541 14.3456 6.38125 14.3033 6.38692V6.38692ZM13.9697 8.22302L13.1877 8.19308C12.2192 8.19308 12.1381 8.71884 12.1381 9.25707L12.1356 10.4396C12.1355 10.4833 12.1441 10.5267 12.1608 10.5672C12.1775 10.6077 12.202 10.6445 12.2329 10.6755C12.2638 10.7065 12.3006 10.731 12.341 10.7478C12.3815 10.7646 12.4248 10.7732 12.4686 10.7732H13.9915V11.9782H12.4699C12.3815 11.9782 12.2967 12.0132 12.2342 12.0757C12.1716 12.1381 12.1364 12.2228 12.1362 12.3112L12.1356 16.9894H10.8734V12.3118C10.8734 12.1278 10.748 11.9788 10.5634 11.9788H9.62608V10.7738H10.5634C10.6072 10.7739 10.6505 10.7654 10.691 10.7487C10.7314 10.732 10.7682 10.7075 10.7991 10.6766C10.8615 10.6136 10.8727 10.5287 10.8727 10.4402V9.09616C10.8727 7.69789 11.1552 7.0318 12.6389 7.0318H13.9691V8.22302H13.9697Z" fill="black"/>
</svg>
