<svg width="36" height="36" viewBox="0 0 36 36" fill="none" xmlns="http://www.w3.org/2000/svg">
<path d="M29.6628 27.1667H6.32943C6.10841 27.1667 5.89645 27.0789 5.74017 26.9226C5.58389 26.7663 5.49609 26.5543 5.49609 26.3333C5.49609 26.1123 5.58389 25.9004 5.74017 25.7441C5.89645 25.5878 6.10841 25.5 6.32943 25.5H29.6628C29.8838 25.5 30.0957 25.5878 30.252 25.7441C30.4083 25.9004 30.4961 26.1123 30.4961 26.3333C30.4961 26.5543 30.4083 26.7663 30.252 26.9226C30.0957 27.0789 29.8838 27.1667 29.6628 27.1667Z" fill="black"/>
<path d="M29.6628 18.8334H6.32943C6.10841 18.8334 5.89645 18.7456 5.74017 18.5893C5.58389 18.433 5.49609 18.221 5.49609 18C5.49609 17.779 5.58389 17.567 5.74017 17.4108C5.89645 17.2545 6.10841 17.1667 6.32943 17.1667H29.6628C29.8838 17.1667 30.0957 17.2545 30.252 17.4108C30.4083 17.567 30.4961 17.779 30.4961 18C30.4961 18.221 30.4083 18.433 30.252 18.5893C30.0957 18.7456 29.8838 18.8334 29.6628 18.8334Z" fill="black"/>
<path d="M29.6628 10.5H6.32943C6.10841 10.5 5.89645 10.4122 5.74017 10.2559C5.58389 10.0997 5.49609 9.88769 5.49609 9.66668C5.49609 9.44566 5.58389 9.2337 5.74017 9.07742C5.89645 8.92114 6.10841 8.83334 6.32943 8.83334H29.6628C29.8838 8.83334 30.0957 8.92114 30.252 9.07742C30.4083 9.2337 30.4961 9.44566 30.4961 9.66668C30.4961 9.88769 30.4083 10.0997 30.252 10.2559C30.0957 10.4122 29.8838 10.5 29.6628 10.5Z" fill="black"/>
</svg>
