<svg width="24" height="24" viewBox="0 0 24 24" fill="none" xmlns="http://www.w3.org/2000/svg">
<path d="M10.5542 6.24101L7.17123 2.33601C6.78123 1.88601 6.06623 1.88801 5.61323 2.34201L2.83123 5.12901C2.00323 5.95801 1.76623 7.18901 2.24523 8.17601C5.10685 14.101 9.88528 18.8861 15.8062 21.756C16.7922 22.235 18.0222 21.998 18.8502 21.169L21.6582 18.356C22.1132 17.901 22.1142 17.182 21.6602 16.792L17.7402 13.427C17.3302 13.075 16.6932 13.121 16.2822 13.533L14.9182 14.899C14.8484 14.9722 14.7565 15.0204 14.6566 15.0363C14.5567 15.0522 14.4543 15.0349 14.3652 14.987C12.1357 13.7031 10.2862 11.8512 9.00523 9.62001C8.95726 9.53076 8.93989 9.42823 8.95578 9.32816C8.97168 9.22809 9.01996 9.136 9.09323 9.06601L10.4532 7.70501C10.8652 7.29101 10.9102 6.65101 10.5542 6.24001V6.24101Z" stroke="black" stroke-width="2" stroke-linecap="round" stroke-linejoin="round"/>
</svg>
